<svg viewBox = "0 0 429.1 422.7" width="429.1" height="422.7" xmlns="http://www.w3.org/2000/svg"><g transform="matrix(1 0 0 1 214.55 211.35)"  ><g style=""   ><g transform="matrix(1 0 0 1 4.23 -126.63)" id="Layer_1"  ><path style="stroke: none; stroke-width: 1; stroke-dasharray: none; stroke-linecap: butt; stroke-dashoffset: 0; stroke-linejoin: miter; stroke-miterlimit: 4; fill: rgb(239,169,141); fill-rule: nonzero; opacity: 1;"  transform=" translate(-218.78, -84.72)" d="M 284.98 138.11 C 248.29000000000002 102.28000000000002 207.77000000000004 71.98000000000002 158.38000000000002 53.500000000000014 C 159.08 57.09000000000002 159.65000000000003 60.070000000000014 160.25000000000003 63.04000000000001 C 160.84000000000003 65.94000000000001 161.45000000000002 68.82000000000001 162.11000000000004 71.94000000000001 C 157.99000000000004 72.82000000000001 154.26000000000005 73.62000000000002 150.16000000000005 74.49000000000001 C 148.05000000000004 64.47000000000001 145.88000000000005 54.750000000000014 144.04000000000005 44.980000000000004 C 143.44000000000005 41.81 145.11000000000004 39.190000000000005 148.35000000000005 38.440000000000005 C 158.90000000000006 35.99 169.50000000000006 33.760000000000005 180.59000000000006 31.330000000000005 C 181.45000000000007 35.49000000000001 182.24000000000007 39.290000000000006 183.08000000000007 43.300000000000004 C 179.64000000000007 44.09 176.65000000000006 44.78 173.87000000000006 45.42 C 189.81000000000006 53.83 205.83000000000007 62.28 221.83000000000007 70.72 C 221.09000000000006 69.28 220.22000000000006 67.57 219.07000000000008 65.35 C 224.50000000000009 62.419999999999995 229.92000000000007 59.489999999999995 235.5900000000001 56.42999999999999 C 237.44000000000008 60.13999999999999 239.2100000000001 63.669999999999995 241.0600000000001 67.38 C 236.45000000000007 69.86 232.07000000000008 72.21 227.0900000000001 74.89 C 251.3400000000001 91.08 273.3400000000001 109.33 293.6400000000001 129.57 C 290.75 132.43 288.02 135.12 284.98 138.11 z" stroke-linecap="round" /></g><g transform="matrix(1 0 0 1 126.73 -2.29)" id="Layer_1"  ><path style="stroke: none; stroke-width: 1; stroke-dasharray: none; stroke-linecap: butt; stroke-dashoffset: 0; stroke-linejoin: miter; stroke-miterlimit: 4; fill: rgb(239,169,141); fill-rule: nonzero; opacity: 1;"  transform=" translate(-341.28, -209.06)" d="M 349.45 140.21 C 359.13 137.44 368.2 134.73000000000002 377.34 132.28 C 381.46 131.17 384.31 132.53 385.45 136.25 C 388.58 146.48 391.43 156.8 394.53999999999996 167.6 C 390.49999999999994 168.73999999999998 386.74999999999994 169.79999999999998 382.78999999999996 170.92 C 381.71 167.32 380.73999999999995 164.11999999999998 379.47999999999996 159.91 C 360.99999999999994 208.76999999999998 331.54999999999995 249.39 296.15999999999997 286.22 C 293.46999999999997 283.18 290.86999999999995 280.24 288.03 277.04 C 323.53 239.77 353.90999999999997 198.03000000000003 370.98999999999995 146.86 C 364.53999999999996 148.65 358.84999999999997 150.24 352.79999999999995 151.92000000000002 C 351.67 147.98 350.62 144.32 349.45 140.21 z" stroke-linecap="round" /></g><g transform="matrix(1 0 0 1 2.27 126.7)" id="Layer_1"  ><path style="stroke: none; stroke-width: 1; stroke-dasharray: none; stroke-linecap: butt; stroke-dashoffset: 0; stroke-linejoin: miter; stroke-miterlimit: 4; fill: rgb(239,169,141); fill-rule: nonzero; opacity: 1;"  transform=" translate(-216.82, -338.05)" d="M 258.44 391.37 C 257.26 387.3 256.24 383.74 255.07999999999998 379.75 C 258.59 378.63 261.93 377.56 266.01 376.26 C 217.20999999999998 357.84999999999997 176.6 328.33 139.49 292.7 C 142.54000000000002 290.09 145.46 287.59999999999997 148.82000000000002 284.72999999999996 C 167.01000000000002 302.04999999999995 186.87 318.86999999999995 208.74 333.14 C 230.54000000000002 347.37 253.32 359.64 279.08000000000004 367.59999999999997 C 277.37000000000006 361.47999999999996 275.80000000000007 355.82 274.07000000000005 349.61999999999995 C 277.87000000000006 348.53 281.62000000000006 347.4599999999999 285.86000000000007 346.24999999999994 C 288.64000000000004 356.23999999999995 291.4800000000001 365.87999999999994 293.9600000000001 375.61999999999995 C 294.7700000000001 378.80999999999995 292.8800000000001 381.3299999999999 289.80000000000007 382.25999999999993 C 279.55 385.37 269.24 388.26 258.44 391.37 z" stroke-linecap="round" /></g><g transform="matrix(1 0 0 1 -126.56 -4.2)" id="Layer_1"  ><path style="stroke: none; stroke-width: 1; stroke-dasharray: none; stroke-linecap: butt; stroke-dashoffset: 0; stroke-linejoin: miter; stroke-miterlimit: 4; fill: rgb(239,169,141); fill-rule: nonzero; opacity: 1;"  transform=" translate(-88, -207.15)" d="M 56.77 267.68 C 63.230000000000004 266.34000000000003 68.94 265.15000000000003 75.04 263.89 C 75.93 267.84 76.76 271.55 77.7 275.71 C 73.69 276.60999999999996 69.87 277.5 66.03 278.33 C 60.42 279.55 54.81 280.76 49.19 281.9 C 45.599999999999994 282.63 42.949999999999996 281.21 41.66 277.96999999999997 C 41.339999999999996 277.15999999999997 41.129999999999995 276.29999999999995 40.949999999999996 275.45 C 38.849999999999994 265.59 36.76 255.73 34.58 245.45 C 38.62 244.57999999999998 42.339999999999996 243.76999999999998 46.449999999999996 242.89 C 47.23 246.23999999999998 47.92999999999999 249.29999999999998 48.87 253.35 C 68.81 206.66 97.97999999999999 167.5 132.84 132.20999999999998 C 135.76 135.17999999999998 138.46 137.90999999999997 141.41 140.90999999999997 C 123.62 159.12999999999997 106.91 178.44999999999996 92.46 199.63999999999996 C 78.05 220.74 65.64 242.87 56.77 267.68 z" stroke-linecap="round" /></g><g transform="matrix(1 0 0 1 131.87 104.43)" id="Layer_1"  ><path style="stroke: none; stroke-width: 1; stroke-dasharray: none; stroke-linecap: butt; stroke-dashoffset: 0; stroke-linejoin: miter; stroke-miterlimit: 4; fill: rgb(239,169,141); fill-rule: nonzero; opacity: 1;"  transform=" translate(-346.42, -315.78)" d="M 300.5 384.97 C 301.11 381.24 301.72 377.48 302.18 374.61 C 309.75 374.61 316.84000000000003 374.71000000000004 323.91 374.59000000000003 C 336.93 374.36 349.18 371.34000000000003 359.74 363.39000000000004 C 371.25 354.72 376.99 342.63000000000005 379.06 328.6700000000001 C 381.94 309.31000000000006 378.42 290.63000000000005 372.55 272.2900000000001 C 370.13 264.7200000000001 367.17 257.32000000000005 364.36 249.58000000000007 C 367.86 248.04000000000008 371.37 246.49000000000007 375.57 244.63000000000008 C 378.79 253.5200000000001 382.26 262.1700000000001 385.05 271.0400000000001 C 389.48 285.1400000000001 392.28000000000003 299.61000000000007 392.33 314.45000000000005 C 392.4 333.57000000000005 388.28 351.38000000000005 374.96 366.01000000000005 C 366.84 374.93000000000006 356.75 380.55000000000007 345.17999999999995 383.80000000000007 C 332.61 387.34 311.18 388.08 300.5 384.97 z" stroke-linecap="round" /></g><g transform="matrix(1 0 0 1 104.49 -131.72)" id="Layer_1"  ><path style="stroke: none; stroke-width: 1; stroke-dasharray: none; stroke-linecap: butt; stroke-dashoffset: 0; stroke-linejoin: miter; stroke-miterlimit: 4; fill: rgb(239,169,141); fill-rule: nonzero; opacity: 1;"  transform=" translate(-319.04, -79.63)" d="M 252.78 61.68 C 251.22 58.15 249.67 54.65 247.93 50.74 C 251.57 49.24 255.06 47.72 258.61 46.36 C 277.85 39.01 297.54 33.75 318.32 33.72 C 337.37 33.699999999999996 354.96999999999997 38.019999999999996 369.45 51.269999999999996 C 378.34999999999997 59.419999999999995 383.9 69.59 387.08 81.16 C 391.09999999999997 95.75999999999999 390.77 110.44999999999999 388.45 125.53999999999999 C 384.47999999999996 124.91999999999999 380.81 124.35999999999999 376.62 123.71 C 376.84000000000003 121.38 377.08 119.08999999999999 377.28000000000003 116.78999999999999 C 378.49 102.97 378.15000000000003 89.33999999999999 372.40000000000003 76.35999999999999 C 365.13000000000005 59.90999999999998 352.07000000000005 50.86999999999999 334.86 47.499999999999986 C 314.13 43.429999999999986 294.13 47.509999999999984 274.44 53.77999999999999 C 267.23 56.07 260.19 58.95 252.78 61.68 z" stroke-linecap="round" /></g><g transform="matrix(1 0 0 1 -139.51 131.16)" id="Layer_1"  ><path style="stroke: none; stroke-width: 1; stroke-dasharray: none; stroke-linecap: butt; stroke-dashoffset: 0; stroke-linejoin: miter; stroke-miterlimit: 4; fill: rgb(239,169,141); fill-rule: nonzero; opacity: 1;"  transform=" translate(-75.04, -342.51)" d="M 36.56 295.74 C 40.7 296.47 44.370000000000005 297.12 48.47 297.85 C 48.06 301.43 47.6 304.85 47.3 308.28000000000003 C 46.239999999999995 320.72 46.76 333.05 51.519999999999996 344.77000000000004 C 59.05 363.29 73.56 372.92 92.78999999999999 375.83000000000004 C 99.77 376.88000000000005 106.91 376.81000000000006 114.30999999999999 377.27000000000004 C 114.62999999999998 380.82000000000005 114.96 384.61 115.32999999999998 388.67 C 104.68999999999998 389.97 94.53999999999999 389.1 84.57999999999998 386.72 C 51.579999999999984 378.84000000000003 35.40999999999998 352.88 34.77999999999999 321.42 C 34.679999999999986 316.68 34.77999999999999 311.92 35.08999999999999 307.19 C 35.32 303.47 36.02 299.79 36.56 295.74 z" stroke-linecap="round" /></g><g transform="matrix(1 0 0 1 -130.97 -139.54)" id="Layer_1"  ><path style="stroke: none; stroke-width: 1; stroke-dasharray: none; stroke-linecap: butt; stroke-dashoffset: 0; stroke-linejoin: miter; stroke-miterlimit: 4; fill: rgb(239,169,141); fill-rule: nonzero; opacity: 1;"  transform=" translate(-83.58, -71.81)" d="M 130.23 33.45 C 129.54 37.400000000000006 128.88 41.150000000000006 128.16 45.290000000000006 C 124.5 44.89000000000001 121.08 44.43000000000001 117.64 44.150000000000006 C 103 42.96000000000001 88.64 43.85000000000001 75.44 51.120000000000005 C 59.69 59.78 52.22 73.94 49.959999999999994 91.16 C 49.10999999999999 97.67 49.16 104.28999999999999 48.779999999999994 111.16 C 45.10999999999999 111.47999999999999 41.31999999999999 111.81 37.55 112.13 C 33.28 74.21 51.28 38.269999999999996 94.18 32.42999999999999 C 106.13 30.8 118.03 31.4 130.23 33.45 z" stroke-linecap="round" /></g><g transform="matrix(1 0 0 1 -27.18 149.14)" id="Layer_1"  ><path style="stroke: none; stroke-width: 1; stroke-dasharray: none; stroke-linecap: butt; stroke-dashoffset: 0; stroke-linejoin: miter; stroke-miterlimit: 4; fill: rgb(239,169,141); fill-rule: nonzero; opacity: 1;"  transform=" translate(-187.38, -360.49)" d="M 194.51 349.87 C 196.48999999999998 353.5 198.31 356.86 200.35999999999999 360.62 C 193.36999999999998 364.14 186.64999999999998 367.52 179.5 371.11 C 177.73 367.27000000000004 176.11 363.73 174.39 359.99 C 181.09 356.61 187.61 353.33 194.51 349.87 z" stroke-linecap="round" /></g><g transform="matrix(1 0 0 1 -118.2 22.84)" id="Layer_1"  ><path style="stroke: none; stroke-width: 1; stroke-dasharray: none; stroke-linecap: butt; stroke-dashoffset: 0; stroke-linejoin: miter; stroke-miterlimit: 4; fill: rgb(239,169,141); fill-rule: nonzero; opacity: 1;"  transform=" translate(-96.36, -234.19)" d="M 84.65 228.21 C 88.17 225.79000000000002 91.33000000000001 223.62 94.74000000000001 221.28 C 99.16000000000001 227.35 103.48 233.27 108.06 239.55 C 104.83 242.06 101.73 244.47 98.37 247.09 C 93.78 240.76 89.38 234.71 84.65 228.21 z" stroke-linecap="round" /></g><g transform="matrix(1 0 0 1 -60.47 -90.91)" id="Layer_1"  ><path style="stroke: none; stroke-width: 1; stroke-dasharray: none; stroke-linecap: butt; stroke-dashoffset: 0; stroke-linejoin: miter; stroke-miterlimit: 4; fill: rgb(239,169,141); fill-rule: nonzero; opacity: 1;"  transform=" translate(-154.08, -120.44)" d="M 149.88 132.69 C 147.07999999999998 129.75 144.43 126.97 141.46 123.85 C 147.20000000000002 118.63 152.78 113.57 158.69 108.19999999999999 C 161.41 111.35999999999999 163.97 114.32999999999998 166.7 117.49999999999999 C 161.03 122.62 155.58 127.54 149.88 132.69 z" stroke-linecap="round" /></g><g transform="matrix(1 0 0 1 -149.03 -27.14)" id="Layer_1"  ><path style="stroke: none; stroke-width: 1; stroke-dasharray: none; stroke-linecap: butt; stroke-dashoffset: 0; stroke-linejoin: miter; stroke-miterlimit: 4; fill: rgb(239,169,141); fill-rule: nonzero; opacity: 1;"  transform=" translate(-65.53, -184.21)" d="M 65.41 197.22 C 61.86 190.16 58.48 183.43 54.91 176.31 C 58.75 174.55 62.309999999999995 172.91 66.03 171.2 C 69.39 177.89999999999998 72.68 184.44 76.14 191.32 C 72.7 193.21 69.27 195.1 65.41 197.22 z" stroke-linecap="round" /></g><g transform="matrix(1 0 0 1 119.9 -24.75)" id="Layer_1"  ><path style="stroke: none; stroke-width: 1; stroke-dasharray: none; stroke-linecap: butt; stroke-dashoffset: 0; stroke-linejoin: miter; stroke-miterlimit: 4; fill: rgb(239,169,141); fill-rule: nonzero; opacity: 1;"  transform=" translate(-334.45, -186.6)" d="M 322.77 181.17 C 325.99 178.7 329.03 176.36999999999998 332.47999999999996 173.72 C 337.04999999999995 180.05 341.53 186.23 346.14 192.61 C 342.76 194.91000000000003 339.59 197.06 336.02 199.48000000000002 C 331.58 193.35 327.25 187.37 322.77 181.17 z" stroke-linecap="round" /></g><g transform="matrix(1 0 0 1 22.79 118.3)" id="Layer_1"  ><path style="stroke: none; stroke-width: 1; stroke-dasharray: none; stroke-linecap: butt; stroke-dashoffset: 0; stroke-linejoin: miter; stroke-miterlimit: 4; fill: rgb(239,169,141); fill-rule: nonzero; opacity: 1;"  transform=" translate(-237.34, -329.65)" d="M 242.72 317.96 C 245.27 321.21999999999997 247.68 324.31 250.25 327.60999999999996 C 243.96 332.19999999999993 237.94 336.59 231.43 341.34 C 229.12 338.02 226.89000000000001 334.83 224.43 331.28999999999996 C 230.52 326.85 236.49 322.5 242.72 317.96 z" stroke-linecap="round" /></g><g transform="matrix(1 0 0 1 58.36 89.3)" id="Layer_1"  ><path style="stroke: none; stroke-width: 1; stroke-dasharray: none; stroke-linecap: butt; stroke-dashoffset: 0; stroke-linejoin: miter; stroke-miterlimit: 4; fill: rgb(239,169,141); fill-rule: nonzero; opacity: 1;"  transform=" translate(-272.91, -300.65)" d="M 268.27 312.79 C 265.43 309.52000000000004 263 306.71000000000004 260.26 303.56 C 265.8 298.47 271.25 293.47 276.65 288.51 C 279.56 291.27 282.41999999999996 293.96999999999997 285.57 296.95 C 279.74 302.28 274.17 307.38 268.27 312.79 z" stroke-linecap="round" /></g><g transform="matrix(1 0 0 1 -24.77 -119.79)" id="Layer_1"  ><path style="stroke: none; stroke-width: 1; stroke-dasharray: none; stroke-linecap: butt; stroke-dashoffset: 0; stroke-linejoin: miter; stroke-miterlimit: 4; fill: rgb(239,169,141); fill-rule: nonzero; opacity: 1;"  transform=" translate(-189.78, -91.56)" d="M 184.33 103.25 C 181.77 99.9 179.44000000000003 96.85 176.89000000000001 93.51 C 183.25000000000003 88.91000000000001 189.38000000000002 84.47 195.76000000000002 79.86 C 198.09000000000003 83.28 200.26000000000002 86.45 202.66000000000003 89.98 C 196.6 94.37 190.66 98.67 184.33 103.25 z" stroke-linecap="round" /></g><g transform="matrix(1 0 0 1 91 -60.47)" id="Layer_1"  ><path style="stroke: none; stroke-width: 1; stroke-dasharray: none; stroke-linecap: butt; stroke-dashoffset: 0; stroke-linejoin: miter; stroke-miterlimit: 4; fill: rgb(239,169,141); fill-rule: nonzero; opacity: 1;"  transform=" translate(-305.55, -150.88)" d="M 308.52 163.5 C 303.38 157.83 298.46999999999997 152.43 293.29999999999995 146.74 C 296.28 143.9 299.12999999999994 141.18 302.18999999999994 138.27 C 307.40999999999997 144.05 312.4599999999999 149.65 317.80999999999995 155.56 C 314.68 158.24 311.71 160.77 308.52 163.5 z" stroke-linecap="round" /></g><g transform="matrix(1 0 0 1 -89.15 58.38)" id="Layer_1"  ><path style="stroke: none; stroke-width: 1; stroke-dasharray: none; stroke-linecap: butt; stroke-dashoffset: 0; stroke-linejoin: miter; stroke-miterlimit: 4; fill: rgb(239,169,141); fill-rule: nonzero; opacity: 1;"  transform=" translate(-125.4, -269.73)" d="M 122.46 257.05 C 127.66 262.73 132.6 268.14 137.51999999999998 273.52 C 134.74999999999997 276.43 132.01999999999998 279.29999999999995 129.05999999999997 282.40999999999997 C 123.72999999999998 276.57 118.62999999999997 270.97999999999996 113.27999999999997 265.14 C 116.34 262.43 119.21 259.91 122.46 257.05 z" stroke-linecap="round" /></g><g transform="matrix(1 0 0 1 -165.39 -68.14)" id="Layer_1"  ><path style="stroke: none; stroke-width: 1; stroke-dasharray: none; stroke-linecap: butt; stroke-dashoffset: 0; stroke-linejoin: miter; stroke-miterlimit: 4; fill: rgb(239,169,141); fill-rule: nonzero; opacity: 1;"  transform=" translate(-49.16, -143.21)" d="M 57.73 150.34 C 53.849999999999994 151.67000000000002 50.25 152.91 46.19 154.3 C 44.29 147.73000000000002 42.48 141.46 40.599999999999994 134.91000000000003 C 44.8 133.92000000000002 48.519999999999996 133.05 52.50999999999999 132.11 C 54.25 138.21 55.95 144.12 57.73 150.34 z" stroke-linecap="round" /></g><g transform="matrix(1 0 0 1 -68.15 165.49)" id="Layer_1"  ><path style="stroke: none; stroke-width: 1; stroke-dasharray: none; stroke-linecap: butt; stroke-dashoffset: 0; stroke-linejoin: miter; stroke-miterlimit: 4; fill: rgb(239,169,141); fill-rule: nonzero; opacity: 1;"  transform=" translate(-146.4, -376.84)" d="M 153.49 368.26 C 154.81 372.07 156.02 375.57 157.48000000000002 379.78 C 151.01000000000002 381.65999999999997 144.69000000000003 383.5 138.09000000000003 385.41999999999996 C 137.09000000000003 381.12999999999994 136.22000000000003 377.41999999999996 135.31000000000003 373.50999999999993 C 141.38 371.76 147.18 370.08 153.49 368.26 z" stroke-linecap="round" /></g><g transform="matrix(1 0 0 1 145.4 15.69)" id="Layer_1"  ><path style="stroke: none; stroke-width: 1; stroke-dasharray: none; stroke-linecap: butt; stroke-dashoffset: 0; stroke-linejoin: miter; stroke-miterlimit: 4; fill: rgb(239,169,141); fill-rule: nonzero; opacity: 1;"  transform=" translate(-359.95, -227.04)" d="M 369.55 232.43 C 366.25 234.1 363.38 235.56 360.49 236.99 C 359.95 237.26000000000002 359.35 237.43 358.55 237.72 C 357.8 236.35999999999999 357.09000000000003 235.07 356.40000000000003 233.78 C 354.42 230.08 352.45000000000005 226.38 350.34000000000003 222.42000000000002 C 353.91 220.38000000000002 357.22 218.49 360.95000000000005 216.36 C 363.82 221.72 366.6 226.93 369.55 232.43 z" stroke-linecap="round" /></g><g transform="matrix(1 0 0 1 6.4 -17.35)" id="Layer_1"  ><path style="stroke: none; stroke-width: 1; stroke-dasharray: none; stroke-linecap: butt; stroke-dashoffset: 0; stroke-linejoin: miter; stroke-miterlimit: 4; fill: rgb(239,169,141); fill-rule: nonzero; opacity: 1;"  transform=" translate(-220.95, -194)" d="M 282.32 257.02 C 280.48 260.37 277.68 261.46 273.84999999999997 261.45 C 238.56999999999996 261.34 203.27999999999997 261.39 167.99999999999997 261.38 C 161.62999999999997 261.38 159.58999999999997 259.38 159.64 253 C 159.73 243.67 159.2 234.26 160.19 225.02 C 161.93 208.95000000000002 170.85999999999999 197.53 185.26 190.33 C 185.72 190.10000000000002 186.17 189.85000000000002 186.89 189.47 C 180.29999999999998 178.63 178.42 167.1 182.17999999999998 154.94 C 184.90999999999997 146.12 190.23 139.07999999999998 197.76999999999998 133.8 C 212.73 123.33000000000001 233.19 124.33000000000001 246.94 135.86 C 260.39 147.14000000000001 267.67 168.53000000000003 255.13 189.54000000000002 C 261.63 192.49 267.32 196.54000000000002 271.90999999999997 202.04000000000002 C 277.08 208.23000000000002 280.34999999999997 215.29000000000002 281.71 223.23000000000002 C 281.83 223.92000000000002 282.09999999999997 224.58 282.31 225.26000000000002 C 282.32 235.84 282.32 246.43 282.32 257.02 z M 269.78 248.82 C 269.78 241.56 270.14 234.60999999999999 269.7 227.7 C 268.89 215.14999999999998 259.99 204.1 248.06 200.35999999999999 C 246.81 199.97 244.95 200.16 243.84 200.83999999999997 C 228.57 210.25999999999996 213.4 210.25999999999996 198.13 200.83999999999997 C 197.01999999999998 200.15999999999997 195.15 199.93999999999997 193.91 200.35999999999999 C 183.57999999999998 203.85 176.65 210.92 173.49 221.30999999999997 C 170.75 230.28999999999996 172.51000000000002 239.56999999999996 172.07000000000002 248.82999999999998 C 204.82 248.82 237.14 248.82 269.78 248.82 z M 221.33 138.97 C 206.01000000000002 138.65 193.14000000000001 151.12 192.76000000000002 166.65 C 192.38000000000002 181.93 205.01000000000002 195.08 220.33 195.34 C 235.99 195.61 248.88000000000002 183.25 249.22000000000003 167.65 C 249.56 152.18 237.03 139.29 221.33 138.97 z" stroke-linecap="round" /></g></g></g></svg>