<svg viewBox = "0 0 339.5 377.9" width="339.5" height="377.9" xmlns="http://www.w3.org/2000/svg"><g transform="matrix(1 0 0 1 169.75 188.95)"  ><g style=""   ><g transform="matrix(1 0 0 1 1.06 0.73)" id="Layer_1"  ><path style="stroke: none; stroke-width: 1; stroke-dasharray: none; stroke-linecap: butt; stroke-dashoffset: 0; stroke-linejoin: miter; stroke-miterlimit: 4; fill: rgb(78,225,203); fill-rule: nonzero; opacity: 1;"  transform=" translate(-170.81, -189.68)" d="M 172.9 12.1 C 217.2 38.2 264 58.5 313.4 72.5 C 321.2 74.7 322.2 76.1 322.2 84.2 C 322.2 110.9 322.59999999999997 137.6 321.9 164.3 C 320.5 220.20000000000002 301 268.9 262.79999999999995 309.9 C 243.69999999999996 330.4 221.79999999999995 347.2 196.49999999999994 359.29999999999995 C 190.39999999999995 362.19999999999993 183.89999999999995 364.49999999999994 177.39999999999995 366.4 C 169.59999999999994 368.79999999999995 162.09999999999994 366.29999999999995 154.79999999999995 363.5 C 133.89999999999995 355.4 115.39999999999995 343.2 98.39999999999995 328.8 C 71.79999999999995 306.3 51.09999999999995 279.2 37.29999999999995 247 C 27.699999999999946 224.6 21.199999999999946 201.3 20.299999999999947 177 C 19.199999999999946 145.1 19.499999999999947 113.2 19.299999999999947 81.3 C 19.299999999999947 76.6 21.099999999999948 74.5 26.099999999999948 73 C 48.29999999999995 66.7 70.19999999999995 59.3 91.59999999999995 50.6 C 116.19999999999996 40.5 139.99999999999994 28.700000000000003 162.99999999999994 15.300000000000004 C 164.89999999999995 14.200000000000005 166.79999999999995 13.100000000000005 168.59999999999994 12.000000000000004 C 170.2 12.1 171.5 12.1 172.9 12.1 z M 308 131.5 C 307.8 131.5 307.7 131.5 307.5 131.5 C 307.5 117.6 307.4 103.7 307.6 89.9 C 307.6 87.30000000000001 307 86.10000000000001 304.40000000000003 85.30000000000001 C 258.5 72 215 53.4 173.6 29.7 C 171.7 28.599999999999998 170.2 28.4 168.2 29.599999999999998 C 126.79999999999998 53.5 83.19999999999999 72.1 37.29999999999998 85.39999999999999 C 34.79999999999998 86.1 34.19999999999998 87.19999999999999 34.19999999999998 89.69999999999999 C 34.29999999999998 111.79999999999998 34.19999999999998 133.89999999999998 34.29999999999998 156 C 34.399999999999984 181.6 38.19999999999998 206.6 47.09999999999998 230.8 C 57.79999999999998 259.8 74.29999999999998 285.1 96.29999999999998 306.6 C 114.59999999999998 324.5 135.2 339.20000000000005 159 349.3 C 166.4 352.40000000000003 173.6 353.5 181.1 350 C 184.29999999999998 348.5 187.7 347.3 190.9 345.7 C 230 326 260.5 297.2 281.9 259 C 295.9 234.1 304.09999999999997 207.3 306.29999999999995 178.8 C 307.3 163 307.4 147.2 308 131.5 z" stroke-linecap="round" /></g><g transform="matrix(1 0 0 1 -92.88 -78.88)" id="Layer_1"  ><path style="stroke: none; stroke-width: 1; stroke-dasharray: none; stroke-linecap: butt; stroke-dashoffset: 0; stroke-linejoin: miter; stroke-miterlimit: 4; fill: rgb(78,225,203); fill-rule: nonzero; opacity: 1;"  transform=" translate(-76.87, -110.07)" d="M 48.9 117 C 48.9 112.8 48.9 108.7 48.9 104.5 C 49 99.2 50.5 97 55.5 95.3 C 68.2 90.8 81 86.39999999999999 93.6 81.7 C 101.3 78.8 105.8 84.7 104.89999999999999 89.5 C 104.19999999999999 93.2 101.6 94.8 98.39999999999999 96 C 87.99999999999999 99.7 77.6 103.6 67.1 107.1 C 64.6 107.89999999999999 63.699999999999996 109.1 63.8 111.69999999999999 C 64 117.99999999999999 63.9 124.39999999999999 63.8 130.79999999999998 C 63.8 134.1 62.599999999999994 136.89999999999998 59.4 138.39999999999998 C 56.6 139.7 53.6 139.49999999999997 51.699999999999996 137.2 C 50.199999999999996 135.29999999999998 49.099999999999994 132.6 48.9 130.1 C 48.5 125.8 48.9 121.4 48.9 117 z" stroke-linecap="round" /></g><g transform="matrix(1 0 0 1 63.69 94.37)" id="Layer_1"  ><path style="stroke: none; stroke-width: 1; stroke-dasharray: none; stroke-linecap: butt; stroke-dashoffset: 0; stroke-linejoin: miter; stroke-miterlimit: 4; fill: rgb(78,225,203); fill-rule: nonzero; opacity: 1;"  transform=" translate(-233.44, -283.32)" d="M 255.9 252.1 C 262 252.1 265.2 258.4 261.7 263.8 C 258.2 269.1 254.39999999999998 274.2 250.5 279.2 C 240.7 291.59999999999997 229.2 302.3 216.9 312.09999999999997 C 212.70000000000002 315.4 208.4 315.4 205.5 311.9 C 202.7 308.4 203.2 304 207.3 300.7 C 218.5 291.59999999999997 229.20000000000002 281.9 238.20000000000002 270.5 C 241.9 265.9 245.3 261.1 248.70000000000002 256.3 C 250.6 253.9 252.6 251.9 255.9 252.1 z" stroke-linecap="round" /></g><g transform="matrix(1 0 0 1 16.05 131.95)" id="Layer_1"  ><path style="stroke: none; stroke-width: 1; stroke-dasharray: none; stroke-linecap: butt; stroke-dashoffset: 0; stroke-linejoin: miter; stroke-miterlimit: 4; fill: rgb(78,225,203); fill-rule: nonzero; opacity: 1;"  transform=" translate(-185.8, -320.9)" d="M 185.9 312.7 C 190.1 312.59999999999997 193.9 316.2 194 320.4 C 194.1 324.7 190.2 328.9 185.8 329.09999999999997 C 181.4 329.29999999999995 177.70000000000002 325.7 177.60000000000002 321.2 C 177.6 316.6 181.3 312.8 185.9 312.7 z" stroke-linecap="round" /></g><g transform="matrix(1 0 0 1 -43.35 -110.5)" id="Layer_1"  ><path style="stroke: none; stroke-width: 1; stroke-dasharray: none; stroke-linecap: butt; stroke-dashoffset: 0; stroke-linejoin: miter; stroke-miterlimit: 4; fill: rgb(78,225,203); fill-rule: nonzero; opacity: 1;"  transform=" translate(-126.4, -78.45)" d="M 134.5 78.3 C 134.6 82.5 130.9 86.3 126.4 86.5 C 122.2 86.7 118.30000000000001 82.8 118.30000000000001 78.4 C 118.30000000000001 74.30000000000001 122.00000000000001 70.60000000000001 126.20000000000002 70.4 C 130.4 70.2 134.4 74 134.5 78.3 z" stroke-linecap="round" /></g><g transform="matrix(1 0 0 1 1.56 -3.18)" id="Layer_1"  ><path style="stroke: none; stroke-width: 1; stroke-dasharray: none; stroke-linecap: butt; stroke-dashoffset: 0; stroke-linejoin: miter; stroke-miterlimit: 4; fill: rgb(78,225,203); fill-rule: nonzero; opacity: 1;"  transform=" translate(-171.31, -185.77)" d="M 139.1 165.6 C 139.1 161.5 138.79999999999998 157.2 139.1 152.9 C 140.2 138.1 151.5 125.7 165.7 123.5 C 181 121.2 195.6 128.9 201 143 C 202.9 148.1 203 153.9 203.7 159.5 C 204 161.6 203.7 163.7 203.7 165.9 C 205.89999999999998 166.20000000000002 207.6 166.3 209.29999999999998 166.70000000000002 C 215.49999999999997 168.00000000000003 220.7 173.4 220.79999999999998 180.20000000000002 C 221.1 198.3 221.1 216.5 220.79999999999998 234.60000000000002 C 220.7 242.20000000000002 214.79999999999998 247.60000000000002 207.1 248.20000000000002 C 201.5 248.60000000000002 195.9 248.4 190.29999999999998 248.4 C 173.39999999999998 248.4 156.59999999999997 248.4 139.7 248.4 C 127.19999999999999 248.4 121.6 242.70000000000002 121.6 230.1 C 121.6 215.79999999999998 121.6 201.6 121.6 187.3 C 121.6 172.2 123.9 169.2 139.1 165.6 z M 171.2 235.5 C 181.89999999999998 235.5 192.5 235.4 203.2 235.5 C 206.6 235.5 208.1 234.5 208.1 230.8 C 208 215.10000000000002 208 199.4 208.1 183.70000000000002 C 208.1 180.3 207 179.20000000000002 203.6 179.20000000000002 C 182.1 179.3 160.7 179.3 139.2 179.20000000000002 C 135.5 179.20000000000002 134.5 180.60000000000002 134.5 184.00000000000003 C 134.6 199.60000000000002 134.6 215.10000000000002 134.5 230.70000000000005 C 134.5 234.20000000000005 135.7 235.60000000000005 139.2 235.50000000000006 C 149.9 235.4 160.6 235.5 171.2 235.5 z M 190.6 166.1 C 190.6 161.7 190.9 157.5 190.5 153.4 C 189.7 144 182.3 136.9 173 136.20000000000002 C 163.6 135.4 154.8 141.10000000000002 152.8 150.10000000000002 C 151.70000000000002 155.20000000000002 152 160.60000000000002 151.60000000000002 166.10000000000002 C 165 166.1 177.6 166.1 190.6 166.1 z" stroke-linecap="round" /></g><g transform="matrix(1 0 0 1 1.6 18.4)" id="Layer_1"  ><path style="stroke: none; stroke-width: 1; stroke-dasharray: none; stroke-linecap: butt; stroke-dashoffset: 0; stroke-linejoin: miter; stroke-miterlimit: 4; fill: rgb(78,225,203); fill-rule: nonzero; opacity: 1;"  transform=" translate(-171.35, -207.35)" d="M 171.5 181.4 C 180.1 181.5 187.7 187.3 190.1 195.5 C 192.5 203.9 189 213.1 181.2 217.4 C 178.5 218.9 177.5 220.6 177.79999999999998 223.5 C 177.79999999999998 223.8 177.79999999999998 224.1 177.79999999999998 224.4 C 177.7 230.3 175.49999999999997 233.3 171.39999999999998 233.3 C 167.2 233.3 164.7 230.3 164.89999999999998 224.5 C 164.99999999999997 221 163.99999999999997 218.9 160.79999999999998 217 C 153.29999999999998 212.6 150.2 203.4 152.7 195.2 C 155.2 187 162.9 181.4 171.5 181.4 z M 171.4 194.4 C 168 194.4 165.1 197.1 165 200.6 C 164.9 204.29999999999998 167.7 207.29999999999998 171.3 207.29999999999998 C 174.70000000000002 207.29999999999998 177.60000000000002 204.6 177.70000000000002 201.1 C 177.8 197.5 175 194.5 171.4 194.4 z" stroke-linecap="round" /></g></g></g></svg>