<svg viewBox = "0 0 429.1 422.7" width="429.1" height="422.7" xmlns="http://www.w3.org/2000/svg"><g transform="matrix(1 0 0 1 216.61 204.51)" id="Layer_1"  ><path style="stroke: none; stroke-width: 1; stroke-dasharray: none; stroke-linecap: butt; stroke-dashoffset: 0; stroke-linejoin: miter; stroke-miterlimit: 4; fill: rgb(238,134,167); fill-rule: nonzero; opacity: 1;"  transform=" translate(-216.61, -204.51)" d="M 369.5 136.4 C 379.3 142.4 391.1 141.5 399.8 134.20000000000002 C 404.6 130.20000000000002 406.8 124.70000000000002 408.7 119.00000000000001 L 408.7 110.70000000000002 C 406.9 105.40000000000002 404.9 100.20000000000002 400.59999999999997 96.30000000000001 C 391.59999999999997 88.20000000000002 379.2 87.00000000000001 368.9 93.80000000000001 C 367 95.00000000000001 365.7 95.10000000000001 363.79999999999995 94.10000000000001 C 349.49999999999994 87.10000000000001 335.09999999999997 80.2 320.79999999999995 73.20000000000002 C 319.59999999999997 72.60000000000002 318.19999999999993 71.10000000000002 317.99999999999994 69.80000000000001 C 312.09999999999997 39.80000000000001 287.79999999999995 17.500000000000014 259.3999999999999 13.400000000000013 C 250.29999999999993 14.000000000000012 249.5999999999999 25.500000000000014 260.3999999999999 26.500000000000014 C 279.8999999999999 30.500000000000014 296.2999999999999 44.500000000000014 303.19999999999993 64.30000000000001 C 310.99999999999994 86.60000000000001 303.3999999999999 111.4 288.3999999999999 124.20000000000002 C 284.5999999999999 129.10000000000002 279.19999999999993 132.9 273.19999999999993 134.60000000000002 C 272.29999999999995 135.50000000000003 270.5999999999999 136.10000000000002 267.5999999999999 137.10000000000002 C 253.5999999999999 141.8 239.7999999999999 141.3 226.0999999999999 135.70000000000002 C 225.7999999999999 135.60000000000002 225.49999999999991 135.4 225.1999999999999 135.3 C 218.8999999999999 133.4 210.0999999999999 124.50000000000001 210.0999999999999 124.80000000000001 C 197.2999999999999 115.50000000000001 187.49999999999991 92.60000000000001 192.39999999999992 71.10000000000001 C 197.39999999999992 48.900000000000006 217.29999999999993 29.60000000000001 234.89999999999992 27.10000000000001 C 244.79999999999993 25.70000000000001 243.19999999999993 13.100000000000009 230.89999999999992 15.000000000000009 C 201.79999999999993 22.70000000000001 180.99999999999991 47.60000000000001 178.49999999999991 77.70000000000002 C 178.39999999999992 78.90000000000002 177.79999999999993 80.40000000000002 176.89999999999992 81.20000000000002 C 164.89999999999992 91.60000000000002 152.79999999999993 101.90000000000002 140.89999999999992 112.10000000000002 C 135.89999999999992 109.10000000000002 131.29999999999993 105.50000000000003 126.09999999999992 103.30000000000003 C 119.19999999999992 100.50000000000003 111.99999999999993 98.60000000000002 104.79999999999993 96.70000000000003 C 102.49999999999993 96.10000000000004 101.39999999999992 95.50000000000003 101.49999999999993 92.90000000000003 C 101.69999999999993 83.90000000000003 101.59999999999992 74.90000000000003 101.49999999999993 65.90000000000003 C 101.49999999999993 64.20000000000003 101.59999999999992 63.000000000000036 103.59999999999992 62.20000000000003 C 114.79999999999993 57.80000000000003 121.29999999999993 48.00000000000003 120.69999999999993 37.10000000000003 C 119.99999999999993 25.50000000000003 112.59999999999994 16.60000000000003 100.69999999999993 13.30000000000003 C 100.09999999999994 13.10000000000003 99.59999999999994 12.900000000000029 98.99999999999993 12.60000000000003 L 91.49999999999993 12.60000000000003 C 91.19999999999993 12.80000000000003 90.89999999999993 13.00000000000003 90.49999999999993 13.10000000000003 C 78.29999999999993 15.40000000000003 70.69999999999993 25.80000000000003 69.69999999999993 35.800000000000026 C 68.59999999999994 47.60000000000002 75.99999999999993 59.00000000000003 86.79999999999993 62.40000000000003 C 87.59999999999992 62.700000000000024 88.59999999999992 63.90000000000003 88.59999999999992 64.70000000000003 C 88.69999999999992 75.10000000000004 88.69999999999992 85.40000000000003 88.69999999999992 96.10000000000002 C 69.49999999999991 98.30000000000003 53.599999999999916 106.50000000000003 41.29999999999992 121.10000000000002 C 29 135.6 23.4 152.8 25.1 172 C 26.6 188.7 33.900000000000006 203.8 44.900000000000006 215.2 C 44.900000000000006 215.2 44.900000000000006 215.2 44.900000000000006 215.2 C 44.900000000000006 215.2 46.400000000000006 216.29999999999998 46.50000000000001 216.29999999999998 C 56.60000000000001 219.49999999999997 58.80000000000001 209.1 52.70000000000001 204.6 L 52.70000000000001 204.6 C 41.900000000000006 193.7 34.000000000000014 172.9 39.30000000000001 152.3 C 45.70000000000001 127.50000000000001 67.20000000000002 109.70000000000002 92.10000000000001 108.60000000000001 C 118 107.4 141 122.80000000000001 149.60000000000002 147.5 C 157.50000000000003 169.9 149.90000000000003 194.7 133.8 208.4 C 133.8 208 132 209.9 131 211 C 128.3 214 118 219 114.9 220.1 C 102.7 224.29999999999998 90.5 224.6 78.5 221 C 70 217.9 64.5 227.4 71.8 232.7 C 76.1 234.2 80.7 235.29999999999998 85.3 236 C 101.3 238.1 116.4 235.4 130.3 227.1 C 148.8 216.2 160.10000000000002 199.9 164.60000000000002 178.5 C 173.40000000000003 185.4 181.8 192 190.40000000000003 198.5 C 192.70000000000005 200.2 193.00000000000003 201.6 192.30000000000004 204.4 C 189.70000000000005 214 192.20000000000005 222.6 199.40000000000003 229.5 C 205.40000000000003 235.3 214.10000000000002 237.7 222.20000000000005 235.9 C 233.20000000000005 233.4 240.00000000000006 226.3 241.90000000000003 215.4 C 243.80000000000004 205 240.10000000000002 196.3 231.50000000000003 190.20000000000002 C 222.70000000000002 184.10000000000002 213.30000000000004 183.8 204.00000000000003 189.10000000000002 C 201.80000000000004 190.40000000000003 200.40000000000003 190.3 198.50000000000003 188.70000000000002 C 188.40000000000003 180.70000000000002 178.20000000000002 172.9 168.10000000000002 164.8 C 166.70000000000002 163.70000000000002 165.8 161.70000000000002 165.3 159.9 C 163.8 154 163.3 147.70000000000002 161.10000000000002 142.1 C 158.3 134.9 154.10000000000002 128.1 150.3 120.69999999999999 C 159.5 112.79999999999998 169.3 104.49999999999999 179.4 95.89999999999999 C 189.4 143.1 241.2 168.89999999999998 285.8 143 C 295.2 155.6 304.7 168.2 314.3 181 C 313 181.4 312.2 181.7 311.3 182 C 294.90000000000003 187.3 281.8 197 272.5 211.6 C 261.3 229.4 258.8 248.5 264.2 268.8 C 264.5 270.1 264.59999999999997 272.40000000000003 263.8 273 C 255.9 279.2 247.70000000000002 285.2 239.5 291.3 C 238.7 290.1 238.1 289.2 237.5 288.2 C 217.9 256.7 174.7 246.1 142.9 265.2 C 123.4 276.9 111.80000000000001 294 108.5 316.59999999999997 C 108.2 318.9 107.3 319.7 104.9 319.7 C 95.9 319.59999999999997 86.9 319.59999999999997 77.9 319.7 C 75.7 319.7 74.7 319.09999999999997 73.9 316.9 C 72 311.4 68.30000000000001 307.2 63.300000000000004 304.2 C 50.10000000000001 296.4 34.2 301.09999999999997 27.200000000000003 314.7 C 20.700000000000003 327.4 26.500000000000004 343.4 39.800000000000004 349.3 C 53.10000000000001 355.2 68.60000000000001 348.7 73.9 334.8 C 74.60000000000001 332.90000000000003 75.5 332.40000000000003 77.4 332.40000000000003 C 86.60000000000001 332.50000000000006 95.9 332.50000000000006 105.10000000000001 332.40000000000003 C 107.4 332.40000000000003 108.10000000000001 333.3 108.4 335.40000000000003 C 108.80000000000001 338.20000000000005 109.30000000000001 341.1 110 343.8 C 116.6 369.3 138.9 392.5 170.5 396 C 196.8 398.9 223 386.9 237.6 362.9 C 241.6 356.4 244.2 349.09999999999997 247.5 342 C 253.9 345.1 260.8 348.4 267.6 351.7 C 274.5 355 281.5 358.4 288.40000000000003 361.7 C 288.00000000000006 363.2 287.70000000000005 364.3 287.50000000000006 365.3 C 283.80000000000007 382 298.20000000000005 397.90000000000003 315.00000000000006 395.90000000000003 C 326.00000000000006 394.6 334.50000000000006 387.20000000000005 337.20000000000005 376.50000000000006 C 339.70000000000005 366.50000000000006 335.6 355.6000000000001 326.90000000000003 349.50000000000006 C 318.50000000000006 343.6000000000001 307.00000000000006 343.6000000000001 298.00000000000006 349.40000000000003 C 296.90000000000003 350.1 294.90000000000003 350.40000000000003 293.80000000000007 349.90000000000003 C 279.30000000000007 343.1 265.00000000000006 336.20000000000005 250.60000000000008 329.1 C 249.60000000000008 328.6 248.70000000000007 327 248.50000000000009 325.8 C 247.9000000000001 321.5 248.60000000000008 316.7 246.9000000000001 312.90000000000003 C 243.10000000000008 304.1 247.50000000000009 300.00000000000006 254.10000000000008 295.8 C 259.7000000000001 292.3 264.9000000000001 287.90000000000003 270.30000000000007 283.8 C 270.9000000000001 284.7 271.30000000000007 285.2 271.6000000000001 285.7 C 285.9000000000001 309.3 314.4000000000001 323.59999999999997 344.1000000000001 318.3 C 382.7000000000001 311.5 409.20000000000005 272 400.2000000000001 234 C 392.4000000000001 200.9 365.2000000000001 179.2 330.9000000000001 178.6 C 329.5000000000001 178.6 327.6000000000001 177.6 326.7000000000001 176.4 C 316.7000000000001 163.3 306.8000000000001 150.1 296.9000000000001 136.9 C 296.4000000000001 136.20000000000002 296.0000000000001 135.5 295.6000000000001 134.8 C 311.1000000000001 118.00000000000001 313.80000000000007 112.4 318.7000000000001 86.50000000000001 C 332.0000000000001 92.90000000000002 345.2000000000001 99.30000000000001 358.4000000000001 105.70000000000002 C 358.2000000000001 106.70000000000002 358.0000000000001 107.40000000000002 357.80000000000007 108.20000000000002 C 355.7 119.3 360.2 130.8 369.5 136.4 z M 383.2 102.2 C 390.9 102.2 397 109 395.8 116.8 C 394.90000000000003 122.6 390 127.2 384.2 127.6 C 376.59999999999997 128.2 370.4 122.19999999999999 370.5 114.69999999999999 C 370.5 107.7 376.2 102.2 383.2 102.2 z M 82.5 38.1 C 82.5 31 88.3 25.200000000000003 95.4 25.3 C 102.30000000000001 25.400000000000002 108 31.200000000000003 108 38.1 C 108 45.2 102.2 50.8 95 50.8 C 88 50.7 82.5 45.1 82.5 38.1 z M 216.6 198.2 C 223.7 198.1 229.5 203.89999999999998 229.5 211 C 229.5 217.9 223.8 223.6 216.9 223.7 C 209.8 223.79999999999998 204 218 204 210.89999999999998 C 204 203.9 209.7 198.2 216.6 198.2 z M 50.4 338.8 C 43.3 338.8 37.5 333 37.599999999999994 325.90000000000003 C 37.699999999999996 319.00000000000006 43.49999999999999 313.3 50.39999999999999 313.3 C 57.49999999999999 313.3 63.099999999999994 319.1 63.099999999999994 326.3 C 63 333.3 57.4 338.8 50.4 338.8 z M 217.9 367.5 C 214 372.7 208.3 376.6 202.1 378.2 C 201.29999999999998 378.8 200.2 379.3 199 379.7 C 184.4 384.8 170 384.7 155.7 378.7 C 154.6 378.3 153.89999999999998 377.8 153.39999999999998 377 C 147.99999999999997 375.1 143.39999999999998 371.5 140.09999999999997 366.9 C 140.09999999999997 367.2 140.09999999999997 367.5 140.09999999999997 367.79999999999995 C 129.09999999999997 363.19999999999993 118.79999999999997 336.99999999999994 121.19999999999996 319.9 C 124.99999999999996 292.5 145.09999999999997 272 170.99999999999994 268.9 C 197.89999999999995 265.7 222.29999999999995 280.29999999999995 232.19999999999993 305.4 C 240.8 327.7 234 353.2 217.9 367.5 z M 312.8 358.2 C 319 358.2 324.40000000000003 362.8 325.40000000000003 368.9 C 326.70000000000005 376.7 320.40000000000003 383.7 312.8 383.7 C 305.8 383.7 300 377.7 300.1 370.7 C 300.1 363.7 305.8 358.2 312.8 358.2 z M 327.7 191.8 C 353 190.20000000000002 376.3 204.70000000000002 385.4 227.70000000000002 C 394.09999999999997 249.70000000000002 388.4 276 371.9 290.40000000000003 C 367.5 297.00000000000006 360.09999999999997 301.8 352.2 303.00000000000006 C 351.9 303.1000000000001 351.59999999999997 303.20000000000005 351.2 303.30000000000007 C 337.09999999999997 308.00000000000006 323.09999999999997 307.70000000000005 309.3 302.00000000000006 C 308.3 301.6000000000001 307.6 301.1000000000001 307.1 300.6000000000001 C 301.5 298.9000000000001 296.70000000000005 295.50000000000006 293.20000000000005 290.9000000000001 C 293.20000000000005 291.0000000000001 293.20000000000005 291.0000000000001 293.20000000000005 291.1000000000001 C 280.30000000000007 281.4000000000001 270.00000000000006 257.9000000000001 276.1 234.70000000000007 C 282.5 211.1 303.6 193.4 327.7 191.8 z" stroke-linecap="round" /></g></svg>