<svg viewBox = "0 0 520.26 494.34" width="520.26" height="494.34" xmlns="http://www.w3.org/2000/svg"><g transform="matrix(1 0 0 1 259.46 248.36)" id="Layer_1"  ><path style="stroke: none; stroke-width: 1; stroke-dasharray: none; stroke-linecap: butt; stroke-dashoffset: 0; stroke-linejoin: miter; stroke-miterlimit: 4; fill: rgb(99,106,232); fill-rule: nonzero; opacity: 1;"  transform=" translate(-259.46, -248.36)" d="M 451.44 264.51 C 451.21 264.31 450.96999999999997 264.09999999999997 450.74 263.9 C 453.93 226.39999999999998 446.38 190.89 427.76 157.66999999999996 C 426.5 155.41999999999996 426.5 153.97999999999996 427.93 151.73999999999995 C 432.86 143.98999999999995 432.92 135.84999999999997 428.16 128.02999999999994 C 423.35 120.12999999999994 415.88000000000005 115.09999999999994 406.84000000000003 117.34999999999994 C 399.32000000000005 119.22999999999993 395.29 116.30999999999993 391.03000000000003 111.63999999999994 C 390.44000000000005 110.99999999999994 389.8 110.36999999999995 389.08000000000004 109.88999999999994 C 387.02000000000004 108.50999999999995 386.80000000000007 106.89999999999995 387.39000000000004 104.45999999999995 C 389.69000000000005 94.92999999999995 385.64000000000004 85.47999999999995 377.33000000000004 80.15999999999995 C 369.17 74.93999999999996 359.52000000000004 75.16999999999996 351.79 81.13999999999996 C 349.73 82.73999999999995 348.29 82.57999999999996 346.15000000000003 81.53999999999996 C 326.38000000000005 71.95999999999997 305.46000000000004 66.46999999999997 283.6 64.69999999999996 C 249.88000000000002 61.96999999999996 217.69000000000003 67.76999999999995 187.26000000000002 82.75999999999996 C 185.56000000000003 83.59999999999997 184.52 83.52999999999996 183.01000000000002 82.25999999999996 C 174.57000000000002 75.12999999999997 164.13000000000002 74.54999999999997 155.36 80.51999999999997 C 146.71 86.40999999999997 143.28 96.32999999999997 146.63000000000002 106.53999999999996 C 147.34000000000003 108.68999999999997 146.91000000000003 109.80999999999996 145.36 111.30999999999996 C 143.99 112.62999999999995 142.62 113.95999999999997 141.27 115.29999999999995 C 133.39000000000001 113.74999999999996 125.73000000000002 112.45999999999995 118.32000000000001 111.44999999999996 C 64.49000000000001 104.08999999999996 30.74000000000001 111.74999999999996 20.700000000000003 133.59999999999997 C 10.660000000000004 155.43999999999997 26.830000000000002 186.03999999999996 67.46000000000001 222.07999999999998 L 67.46000000000001 229.63 C 70.07000000000001 237.78 74.84 243.89 83.22000000000001 246.81 C 83.93 247.06 84.43 248.75 84.50000000000001 249.81 C 84.87000000000002 254.91 84.84000000000002 260.06 85.35000000000001 265.14 C 90.06 312.34 109.80000000000001 352.16999999999996 144.4 384.59 C 146.23000000000002 386.29999999999995 146.61 387.67999999999995 146.02 390.03999999999996 C 143.74 399.10999999999996 147.35000000000002 408.18999999999994 155.14000000000001 413.65999999999997 C 162.92000000000002 419.13 172.66000000000003 419.41999999999996 180.42000000000002 414.05999999999995 C 182.68 412.49999999999994 184.26000000000002 412.40999999999997 186.71 413.6499999999999 C 207.32 424.1499999999999 229.27 430.12999999999994 252.27 432.00999999999993 C 286.65000000000003 434.81999999999994 319.42 428.81999999999994 350.3 413.2099999999999 C 351.96000000000004 412.36999999999995 353.02000000000004 412.3299999999999 354.59000000000003 413.55999999999995 C 363.02000000000004 420.18999999999994 373.20000000000005 420.56999999999994 381.69000000000005 414.75999999999993 C 390.1600000000001 408.9699999999999 393.57000000000005 399.2899999999999 390.4800000000001 389.03999999999996 C 389.87000000000006 387.02 390.19000000000005 385.91999999999996 391.68000000000006 384.53999999999996 C 394.94000000000005 381.49999999999994 398.07000000000005 378.37999999999994 401.07000000000005 375.2 C 414.16 376.96999999999997 426.07000000000005 377.86 436.72 377.86 C 469.64000000000004 377.86 490.67 369.45 498.23 352.99 C 508.26 331.16 492.08 300.56 451.44 264.51 z M 440.07 254.82 C 440 257 439.89 259.18 439.74 261.37 C 439.55 264.11 439.28000000000003 266.84000000000003 438.96000000000004 269.55 C 437.6 281.22 435.04 292.64 431.25000000000006 303.82 C 430.8500000000001 305 430.4200000000001 306.17 429.96000000000004 307.33 C 429.84000000000003 307.65 429.58000000000004 307.90999999999997 429.77000000000004 307.62 C 413.02000000000004 293.84000000000003 396.27000000000004 280.06 379.06000000000006 265.9 C 380.6700000000001 258.78 379.46000000000004 251.34999999999997 374.07000000000005 244.71999999999997 C 373.51000000000005 244.03999999999996 374.08000000000004 241.94999999999996 374.72 240.85999999999996 C 377.22 236.56999999999996 379.63000000000005 232.23999999999995 381.96000000000004 227.86999999999995 C 383.85 224.31999999999994 385.66 220.72999999999996 387.42 217.12999999999994 C 392.41 206.93999999999994 396.92 196.51999999999992 400.87 185.83999999999995 C 403.38 179.05999999999995 405.87 172.24999999999994 407.79 165.28999999999994 C 409.06 160.67999999999992 412.94 162.87999999999994 415.45000000000005 161.63999999999993 C 415.95000000000005 161.38999999999993 417.83000000000004 162.95999999999992 418.43000000000006 164.04999999999993 C 434.18 192.42 441.17 222.74 440.07 254.82 z M 409.08 128.21 C 415.34999999999997 128.28 420.3 133.46 420.21 139.85000000000002 C 420.12 146.02 415.15 151.08 409.09 151.16000000000003 C 402.46 151.25000000000003 397.46 146.31000000000003 397.45 139.66000000000003 C 397.45 133 402.39 128.13 409.08 128.21 z M 365.47 87.8 C 371.75 87.84 376.87 93.03 376.8 99.28999999999999 C 376.72 105.83999999999999 371.93 110.69 365.47 110.75 C 358.91 110.81 353.91 105.75 353.95000000000005 99.1 C 354 92.83 359.16 87.76 365.47 87.8 z M 193 92.56 C 219.57 79.55 247.69 74.06 277.19 75.57000000000001 C 298.35 76.65 318.64 81.42 337.99 90.11000000000001 C 339.79 90.92000000000002 341.56 91.81000000000002 343.26 92.63000000000001 C 342.64 99.16000000000001 342.64 99.15 336.71 101.05000000000001 C 330.29999999999995 103.10000000000001 330.09999999999997 103.00000000000001 323.90999999999997 105.54 C 318.32 109.58000000000001 322.90999999999997 117.84 328.28999999999996 115.92 C 335.01 113.17 335.77 113.14 342.78 111.04 C 343.79999999999995 110.74000000000001 345.60999999999996 110.95 346.19 111.65 C 356.16 123.41000000000001 367.06 125.26 380.17 116.89 C 383.55 120.06 386.81 123.11 390.21000000000004 126.29 C 386.85 132 385.31000000000006 137.86 386.73 144.31 C 387.99 150.05 390.86 154.77 395.64000000000004 158.13 C 397.44000000000005 159.39 397.63000000000005 160.46 397.02000000000004 162.45 C 391.84000000000003 179.23 385.43000000000006 195.45 377.82000000000005 211.14999999999998 C 376.07000000000005 214.76 374.26000000000005 218.33999999999997 372.39000000000004 221.89 C 369.96000000000004 226.48999999999998 367.43000000000006 231.04999999999998 364.79 235.54999999999998 C 363.63 237.54 362.34000000000003 237.32 360.38 237.57 C 354.05 238.38 352.1 234.47 349.75 229.81 C 344.19 218.78 337.92 208.29 330.96 198.33 C 325.5 190.52 319.62 183.05 313.29999999999995 175.9 C 306.41999999999996 168.11 299.04999999999995 160.70000000000002 291.15999999999997 153.70000000000002 C 289.14 151.91000000000003 288.53999999999996 150.51000000000002 289.36999999999995 147.72000000000003 C 290.34 144.47000000000003 290.40999999999997 140.87000000000003 290.34999999999997 137.43000000000004 C 290.32 135.36000000000004 290.40999999999997 134.08000000000004 292.45 132.91000000000003 C 298.21999999999997 129.62000000000003 297.56 129.3 303.53 126.46000000000002 C 311.21999999999997 123.02000000000002 304.57 113.63000000000002 299.51 115.93000000000002 C 292.2 119.38000000000002 291.53999999999996 120.42000000000002 284.5 124.57000000000002 C 275.43 116.57000000000002 263.09 114.73000000000002 251.48 124.52000000000002 C 235.13 114.91000000000003 217.94 107.03000000000003 199.81 101.22000000000003 C 197.67000000000002 100.53000000000003 195.41 100.10000000000002 193.43 99.11000000000003 C 192.24 98.51000000000003 190.8 97.11000000000003 190.72 95.98000000000003 C 190.65 94.87 191.88 93.1 193 92.56 z M 368.35 260.11 C 368.29 266.6 363.41 271.5 356.97 271.54 C 350.69000000000005 271.58000000000004 345.49 266.12 345.63000000000005 259.62 C 345.76000000000005 253.48000000000002 350.8500000000001 248.41 356.89000000000004 248.4 C 363.48 248.39 368.42 253.43 368.35 260.11 z M 334.36 261.6 L 334.37 261.6 C 334.55 265.01000000000005 335.56 268.3 337.43 271.33000000000004 C 338.46 273.00000000000006 338.31 274.07000000000005 337.09000000000003 275.58000000000004 C 320.59000000000003 296.06000000000006 302.09000000000003 314.4200000000001 281.52000000000004 330.57000000000005 C 264.35 324.06000000000006 246.90000000000003 316.75000000000006 229.41000000000003 308.71000000000004 C 211.3 300.39000000000004 193.8 291.58000000000004 177.17000000000002 282.47 C 177.61 282.01000000000005 178.00000000000003 281.47 178.31 280.83000000000004 C 181.82 268.27000000000004 186.38 255.91000000000003 191.99 243.74000000000004 C 192.43 242.94000000000003 199.17000000000002 230.73000000000005 206.59 218.21000000000004 C 207.79 218.30000000000004 212.89000000000001 208.25000000000003 212.64000000000001 208.23000000000005 C 215.35000000000002 203.88000000000005 217.94000000000003 199.89000000000004 220.15 196.82000000000005 C 227.88 186.56000000000006 236.52 176.96000000000004 245.87 167.95000000000005 C 246.86 167.00000000000006 247.95000000000002 166.14000000000004 248.86 165.11000000000004 C 250.04000000000002 163.79000000000005 251.20000000000002 162.69000000000005 252.43 161.90000000000003 C 254.87 160.35000000000002 257.62 160.08000000000004 261.44 162.04000000000002 C 266.82 164.8 272.96 163.59000000000003 278.38 160.71 C 278.78 160.5 279.14 160.35 279.49 160.24 C 280.99 160.89000000000001 282.48 161.55 283.98 162.21 C 292.42 169.81 300.25 177.87 307.49 186.39000000000001 C 321.03000000000003 202.33 332.48 219.85000000000002 341.78000000000003 238.98000000000002 C 342.3 240.05 342.37 242.4 341.81 242.73000000000002 C 341.78000000000003 242.75000000000003 341.75 242.79000000000002 341.72 242.84000000000003 C 340.78 243.94 332.98 253.25 334.36 261.6 z M 256.52 140.67 C 256.44 134.42 261.59 129.10999999999999 267.77 129.04999999999998 C 274.38 128.98999999999998 279.45 134.01999999999998 279.40999999999997 140.58999999999997 C 279.36999999999995 146.99999999999997 274.46 151.96999999999997 268.03999999999996 152.09999999999997 C 261.97 152.22 256.6 146.9 256.52 140.67 z M 168.28 87.85 C 174.72 87.94 179.47 92.83999999999999 179.49 99.39999999999999 C 179.5 105.63 174.27 110.88999999999999 168.07000000000002 110.88 C 161.88000000000002 110.86999999999999 156.67000000000002 105.61 156.68 99.38 C 156.69 92.69 161.66 87.75 168.28 87.85 z M 72.48 210.44 C 39.31 180.3 24.440000000000005 154.23 31.620000000000005 138.6 C 37.00000000000001 126.88 54.92 120.75 82.31 120.75 C 92.51 120.75 104.04 121.6 116.71000000000001 123.33 C 121.47000000000001 123.98 126.35000000000001 124.75 131.32 125.63 C 131.04 125.94 130.73999999999998 126.25 130.45999999999998 126.57 C 129.32 127.86 128.77999999999997 130.72 129.40999999999997 132.26 C 130.05999999999997 133.85 132.42999999999998 135.54999999999998 134.14999999999998 135.67 C 135.86999999999998 135.79 138.06999999999996 134.36999999999998 139.45 133.01999999999998 C 141.08999999999997 131.42 142.69 129.77999999999997 144.29 128.14 C 147.57999999999998 124.75999999999999 150.79999999999998 121.32999999999998 154.01999999999998 117.96999999999998 C 154.54999999999998 118.08999999999999 155.07 118.20999999999998 155.6 118.32999999999998 C 160.42 121.19999999999999 165.12 122.27999999999999 169.98 121.81999999999998 C 171.23 121.69999999999997 172.48999999999998 121.48999999999998 173.76 121.16999999999997 C 180.42 119.51999999999997 185.14999999999998 115.26999999999997 188.54 109.51999999999997 C 208.14 115.17999999999996 226.43 123.02999999999997 243.79999999999998 133.04999999999995 C 245.42 133.97999999999996 245.79 134.90999999999997 245.71999999999997 136.86999999999995 C 245.59999999999997 140.09999999999994 245.67999999999998 143.47999999999996 246.40999999999997 146.61999999999995 C 246.50999999999996 147.03999999999994 246.61999999999998 147.46999999999994 246.73999999999998 147.87999999999994 C 247.54 150.60999999999993 246.87999999999997 151.86999999999995 245.01 153.51999999999992 C 243.59 154.76999999999992 242.19 156.03999999999994 240.79999999999998 157.31999999999994 C 230.35999999999999 166.93999999999994 220.82999999999998 177.40999999999994 212.20999999999998 188.70999999999992 L 212.18999999999997 188.69999999999993 C 212.18999999999997 188.69999999999993 211.44999999999996 189.64999999999992 210.18999999999997 191.34999999999994 C 209.78999999999996 191.86999999999995 209.39999999999998 192.30999999999995 208.98999999999998 192.65999999999994 C 209.04999999999998 192.68999999999994 209.1 192.71999999999994 209.15999999999997 192.74999999999994 C 206.75999999999996 196.02999999999994 203.15999999999997 201.11999999999995 199.13999999999996 207.36999999999995 C 198.20999999999995 207.31999999999994 196.14999999999995 213.33999999999995 192.88999999999996 217.51999999999995 C 189.44999999999996 223.38999999999996 185.97999999999996 229.79999999999995 182.90999999999997 236.41999999999996 L 182.91999999999996 236.42999999999995 C 176.67999999999995 249.62999999999994 171.59999999999997 263.2099999999999 167.67999999999995 277.16999999999996 C 146.02999999999994 264.89 125.98999999999995 252.10999999999996 108.15999999999994 239.17999999999995 C 110.64999999999993 236.14999999999995 111.89999999999993 232.44999999999996 112.53999999999994 228.16999999999996 C 113.28999999999994 223.11999999999995 112.34999999999994 216.21999999999997 107.84999999999994 210.88999999999996 C 106.60999999999994 209.41999999999996 105.28999999999994 207.71999999999997 103.62999999999994 206.71999999999997 C 101.44999999999993 205.40999999999997 101.38999999999994 203.97999999999996 102.00999999999993 201.80999999999997 C 106.39999999999993 186.34999999999997 112.69999999999993 171.73999999999998 121.03999999999994 157.98999999999998 C 123.37999999999994 154.12999999999997 122.91999999999993 151.12999999999997 119.88999999999993 149.2 C 116.68999999999993 147.17 113.85999999999993 148.19 111.35999999999993 152.29999999999998 C 102.61999999999993 166.67 95.84999999999992 181.92 91.49999999999993 198.17 C 90.74999999999993 200.97 89.60999999999993 202.17999999999998 86.61999999999993 202.57999999999998 C 80.48 203.42 75.8 206.12 72.48 210.44 z M 78.69 224.59 C 78.75 222.14000000000001 79.63 219.84 81.05 217.97 C 83.14 215.2 86.41 213.35999999999999 89.97 213.35 C 96.51 213.34 101.49 218.44 101.42 225.07999999999998 C 101.39 227.91 100.47 230.39999999999998 98.92 232.32 C 96.81 234.94 93.52 236.51 89.67 236.42 C 83.48 236.27 78.54 230.95 78.69 224.59 z M 168.3 406.6 C 161.94 406.72 156.65 401.45000000000005 156.66000000000003 395 C 156.67000000000002 388.74 161.84000000000003 383.48 168.00000000000003 383.45 C 174.09000000000003 383.42 179.41000000000003 388.72999999999996 179.49000000000004 394.92 C 179.58 401.22 174.53 406.49 168.3 406.6 z M 185.29 380.33 C 182.25 376.34999999999997 177.97 374.08 173.10999999999999 372.75 C 172.01999999999998 372.45 170.49999999999997 371.07 170.41 370.08 C 168.81 352 169.04 334.25 171.14 316.84 C 171.67 309.72999999999996 162.30999999999997 307.52 159.88 315.94 C 157.79999999999998 332.83 157.43 349.81 158.93 366.87 C 159.37 371.88 159.02 375.7 152.56 377.31 C 116.55000000000001 341.73 98.30000000000001 298.12 95.38 247.61 C 96.21 247.19000000000003 97 246.82000000000002 97.75999999999999 246.46 C 132.82 272.31 176.54 297.63 224.38 319.62 C 239.72 326.67 255.05 333.17 270.19 339.08 C 269.46999999999997 339.59999999999997 268.75 340.13 268.02 340.65 C 243.96999999999997 357.7 218.07999999999998 371.28 190.51999999999998 381.74 C 188.18 382.63 186.9 382.43 185.29 380.33 z M 346.58 399.66 C 346.81 401.81 346.31 402.74 344.43 403.63000000000005 C 293.32 427.72 242.27 427.6700000000001 191.24 403.41 C 190.8 403.20000000000005 190.4 402.90000000000003 189.93 402.62 C 190.21 400.14 190.17000000000002 397.59000000000003 190.88 395.28000000000003 C 191.25 394.09000000000003 192.79999999999998 392.89000000000004 194.09 392.40000000000003 C 213.75 384.98 232.66 376.00000000000006 250.74 365.28000000000003 C 261.87 358.67 272.54 351.52000000000004 282.75 343.85 C 311.62 354.55 339.64 362.99 365.63 368.79 C 365.59 369.41 365.56 370.04 365.53 370.66 C 365.46 371.83000000000004 364.14 373.53000000000003 363.03 373.92 C 351.35 378.01 345.25 387.26 346.58 399.66 z M 369.06 407.5 C 362.71 407.56 357.6 402.58 357.54 396.26 C 357.48 389.53 362.33000000000004 384.59 368.97 384.61 C 375.46000000000004 384.63 380.24 389.43 380.31 395.98 C 380.38 402.32 375.38 407.44 369.06 407.5 z M 384.83 375.6 C 383.66999999999996 376.67 382.66999999999996 378.17 380.78 376.62 C 379.04999999999995 375.2 376.33 375.27 376.67999999999995 371.46 C 376.68999999999994 371.34999999999997 376.69999999999993 371.22999999999996 376.7099999999999 371.12 L 377.81999999999994 371.34000000000003 L 377.81999999999994 371.33000000000004 C 381.06999999999994 371.97 384.2799999999999 372.56000000000006 387.44999999999993 373.11 C 386.59 373.95 385.72 374.78 384.83 375.6 z M 397.46 362.58 C 391.22999999999996 361.64 384.83 360.51 378.28 359.2 L 377.10999999999996 358.95 L 377.46999999999997 347.87 C 376.64 335.13 365.98999999999995 336.69 365.61999999999995 347.87 C 365.5199999999999 350.88 365.46999999999997 353.79 365.4599999999999 356.43 L 365.0299999999999 356.34000000000003 C 342.56999999999994 351.17 318.5799999999999 344.03000000000003 293.8399999999999 335.13000000000005 C 312.4699999999999 319.89000000000004 329.4699999999999 302.76000000000005 344.8399999999999 283.76000000000005 C 346.62999999999994 281.55000000000007 348.0299999999999 280.49000000000007 350.9699999999999 281.83000000000004 C 353.0399999999999 282.78000000000003 355.5799999999999 282.70000000000005 358.69999999999993 283.22 C 360.38999999999993 291.85 362.11999999999995 300.53000000000003 363.7799999999999 309.21000000000004 C 364.3099999999999 312.01000000000005 364.9099999999999 314.64000000000004 368.2099999999999 315.45000000000005 C 372.2799999999999 316.45000000000005 375.7999999999999 313.53000000000003 375.0499999999999 309.12000000000006 C 373.5699999999999 300.39000000000004 371.6499999999999 291.74000000000007 369.8699999999999 283.07000000000005 C 369.4499999999999 281.03000000000003 368.70999999999987 279.28000000000003 371.1799999999999 277.63000000000005 C 373.6199999999999 276.00000000000006 374.6599999999999 277.87000000000006 376.0099999999999 278.80000000000007 C 392.70999999999987 290.3400000000001 408.1399999999999 303.39000000000004 422.5699999999999 317.6500000000001 C 424.40999999999985 319.4700000000001 424.59999999999985 320.8300000000001 423.4999999999999 323.11000000000007 C 416.52 337.53 407.86 350.7 397.46 362.58 z M 487.31 347.99 C 480.37 363.09000000000003 452.62 368.92 410.64 364.3 C 430.86 339.49 443.81 310.94 448.98 278.48 C 480.37 307.63 494.31 332.77 487.31 347.99 z" stroke-linecap="round" /></g></svg>